# xmcd CD database file
#
# Track frame offsets:
#	150
#	15927
#	29067
#	43247
#	57805
#	71640
#	84130
#	101352
#	117332
#	131935
#
# Disc length: 1905 seconds
#
# Revision: 2
# Processed by: cddbd v1.4PL0 Copyright (c) Steve Scherf et al.
# Submitted via: CDex 1.40Release
#
DISCID=81076f0a
DTITLE=Tracy Lawrence - Alibis
DYEAR=1900
DGENRE=Country
TTITLE0=I Threw The Rest Away
TTITLE1=Can't Break It To My Heart
TTITLE2=We Don't Love Here Anymore
TTITLE3=Crying Ain't Dying
TTITLE4=Alibis
TTITLE5=My Second Home
TTITLE6=Don't Talk To Me That Way
TTITLE7=It Only Takes One Bar (To Make A Prison)
TTITLE8=Back To Back
TTITLE9=If The Good Die Young
EXTD=ID3G: 2
EXTT0=
EXTT1=
EXTT2=
EXTT3=
EXTT4=
EXTT5=
EXTT6=
EXTT7=
EXTT8=
EXTT9=
PLAYORDER=
